<?xml version="1.0" standalone="no"?>
<svg xmlns:xlink="http://www.w3.org/1999/xlink" id="wave" style="transform:rotate(0deg); transition: 0.3s" viewBox="0 0 1440 490" version="1.1" xmlns="http://www.w3.org/2000/svg"><defs><linearGradient id="sw-gradient-0" x1="0" x2="0" y1="1" y2="0"><stop stop-color="rgba(31, 48, 95, 1)" offset="0%"/><stop stop-color="rgba(0, 0, 0, 1)" offset="100%"/></linearGradient></defs><path style="transform:translate(0, 0px); opacity:1" fill="url(#sw-gradient-0)" d="M0,392L80,359.3C160,327,320,261,480,253.2C640,245,800,294,960,334.8C1120,376,1280,408,1440,359.3C1600,310,1760,180,1920,171.5C2080,163,2240,278,2400,343C2560,408,2720,425,2880,424.7C3040,425,3200,408,3360,400.2C3520,392,3680,392,3840,400.2C4000,408,4160,425,4320,424.7C4480,425,4640,408,4800,351.2C4960,294,5120,196,5280,163.3C5440,131,5600,163,5760,196C5920,229,6080,261,6240,302.2C6400,343,6560,392,6720,359.3C6880,327,7040,212,7200,196C7360,180,7520,261,7680,302.2C7840,343,8000,343,8160,285.8C8320,229,8480,114,8640,130.7C8800,147,8960,294,9120,334.8C9280,376,9440,310,9600,302.2C9760,294,9920,343,10080,310.3C10240,278,10400,163,10560,130.7C10720,98,10880,147,11040,147C11200,147,11360,98,11440,73.5L11520,49L11520,490L11440,490C11360,490,11200,490,11040,490C10880,490,10720,490,10560,490C10400,490,10240,490,10080,490C9920,490,9760,490,9600,490C9440,490,9280,490,9120,490C8960,490,8800,490,8640,490C8480,490,8320,490,8160,490C8000,490,7840,490,7680,490C7520,490,7360,490,7200,490C7040,490,6880,490,6720,490C6560,490,6400,490,6240,490C6080,490,5920,490,5760,490C5600,490,5440,490,5280,490C5120,490,4960,490,4800,490C4640,490,4480,490,4320,490C4160,490,4000,490,3840,490C3680,490,3520,490,3360,490C3200,490,3040,490,2880,490C2720,490,2560,490,2400,490C2240,490,2080,490,1920,490C1760,490,1600,490,1440,490C1280,490,1120,490,960,490C800,490,640,490,480,490C320,490,160,490,80,490L0,490Z"/></svg>