<?xml version="1.0" standalone="no"?>
<svg xmlns:xlink="http://www.w3.org/1999/xlink" id="wave" style="transform:rotate(180deg); transition: 0.3s" viewBox="0 0 1440 490" version="1.1" xmlns="http://www.w3.org/2000/svg"><defs><linearGradient id="sw-gradient-0" x1="0" x2="0" y1="1" y2="0"><stop stop-color="rgba(255, 249.06, 247.153, 1)" offset="0%"/><stop stop-color="rgba(36, 61, 134, 1)" offset="100%"/></linearGradient></defs><path style="transform:translate(0, 0px); opacity:1" fill="url(#sw-gradient-0)" d="M0,441L40,375.7C80,310,160,180,240,179.7C320,180,400,310,480,343C560,376,640,310,720,277.7C800,245,880,245,960,204.2C1040,163,1120,82,1200,65.3C1280,49,1360,98,1440,114.3C1520,131,1600,114,1680,147C1760,180,1840,261,1920,294C2000,327,2080,310,2160,261.3C2240,212,2320,131,2400,130.7C2480,131,2560,212,2640,204.2C2720,196,2800,98,2880,49C2960,0,3040,0,3120,16.3C3200,33,3280,65,3360,114.3C3440,163,3520,229,3600,220.5C3680,212,3760,131,3840,130.7C3920,131,4000,212,4080,277.7C4160,343,4240,392,4320,383.8C4400,376,4480,310,4560,245C4640,180,4720,114,4800,81.7C4880,49,4960,49,5040,57.2C5120,65,5200,82,5280,89.8C5360,98,5440,98,5520,106.2C5600,114,5680,131,5720,138.8L5760,147L5760,490L5720,490C5680,490,5600,490,5520,490C5440,490,5360,490,5280,490C5200,490,5120,490,5040,490C4960,490,4880,490,4800,490C4720,490,4640,490,4560,490C4480,490,4400,490,4320,490C4240,490,4160,490,4080,490C4000,490,3920,490,3840,490C3760,490,3680,490,3600,490C3520,490,3440,490,3360,490C3280,490,3200,490,3120,490C3040,490,2960,490,2880,490C2800,490,2720,490,2640,490C2560,490,2480,490,2400,490C2320,490,2240,490,2160,490C2080,490,2000,490,1920,490C1840,490,1760,490,1680,490C1600,490,1520,490,1440,490C1360,490,1280,490,1200,490C1120,490,1040,490,960,490C880,490,800,490,720,490C640,490,560,490,480,490C400,490,320,490,240,490C160,490,80,490,40,490L0,490Z"/><defs><linearGradient id="sw-gradient-1" x1="0" x2="0" y1="1" y2="0"><stop stop-color="rgba(36, 61, 134, 1)" offset="0%"/><stop stop-color="rgba(26.045, 26.139, 26.411, 1)" offset="100%"/></linearGradient></defs><path style="transform:translate(0, 50px); opacity:0.9" fill="url(#sw-gradient-1)" d="M0,0L40,8.2C80,16,160,33,240,98C320,163,400,278,480,334.8C560,392,640,392,720,326.7C800,261,880,131,960,65.3C1040,0,1120,0,1200,40.8C1280,82,1360,163,1440,163.3C1520,163,1600,82,1680,89.8C1760,98,1840,196,1920,269.5C2000,343,2080,392,2160,400.2C2240,408,2320,376,2400,375.7C2480,376,2560,408,2640,351.2C2720,294,2800,147,2880,106.2C2960,65,3040,131,3120,155.2C3200,180,3280,163,3360,147C3440,131,3520,114,3600,147C3680,180,3760,261,3840,310.3C3920,359,4000,376,4080,334.8C4160,294,4240,196,4320,204.2C4400,212,4480,327,4560,318.5C4640,310,4720,180,4800,171.5C4880,163,4960,278,5040,302.2C5120,327,5200,261,5280,204.2C5360,147,5440,98,5520,130.7C5600,163,5680,278,5720,334.8L5760,392L5760,490L5720,490C5680,490,5600,490,5520,490C5440,490,5360,490,5280,490C5200,490,5120,490,5040,490C4960,490,4880,490,4800,490C4720,490,4640,490,4560,490C4480,490,4400,490,4320,490C4240,490,4160,490,4080,490C4000,490,3920,490,3840,490C3760,490,3680,490,3600,490C3520,490,3440,490,3360,490C3280,490,3200,490,3120,490C3040,490,2960,490,2880,490C2800,490,2720,490,2640,490C2560,490,2480,490,2400,490C2320,490,2240,490,2160,490C2080,490,2000,490,1920,490C1840,490,1760,490,1680,490C1600,490,1520,490,1440,490C1360,490,1280,490,1200,490C1120,490,1040,490,960,490C880,490,800,490,720,490C640,490,560,490,480,490C400,490,320,490,240,490C160,490,80,490,40,490L0,490Z"/></svg>