<svg id="e632b84c-5fce-4282-a9a6-468bddd8c8e2" xmlns="http://www.w3.org/2000/svg" width="80" height="80" viewBox="0 0 80 80" aria-hidden="true" focusable="false"><g id="aa9a0feb-ac22-44b3-9fa5-6a2707f92fa8"><g id="bbdc65bc-515e-4b41-b45e-54348e5e7ca9"><g id="ea8cf577-166b-4ddb-982a-2de334770b9b"><circle id="ac6aa401-1a31-4c43-85cd-6c9cc9fb3588" cx="50" cy="49" r="20" fill="#77bee2"/><circle id="b6b0b30c-e1e4-4f03-b8a1-dd59f10df087" cx="50" cy="49" r="4" fill="#fff"/><g id="b3f0b1a4-ebee-41bc-b278-9852a14ad32e"><rect id="b70daadb-5303-4a21-b4cc-1d87879ba511" width="80" height="80" fill="none"/><g id="b564821a-27eb-45b3-82b2-bc2e6e5ba162"><path d="M74.31,42.45a28,28,0,0,0-21.8-24.58V14.34A4.72,4.72,0,0,0,51.37,5h-10a4.72,4.72,0,0,0-1.14,9.3v3.54A27.93,27.93,0,0,0,26.55,25.4a29.58,29.58,0,0,0-2.36,2.68h-10a1.39,1.39,0,1,0,0,2.78H22.3a27.66,27.66,0,0,0-2.46,5.34H4.72a1.39,1.39,0,1,0,0,2.78H19.05a28.29,28.29,0,0,0-.69,5.34H12.22a1.39,1.39,0,1,0,0,2.77h6.19a27.67,27.67,0,0,0,.87,5.34h-9a1.39,1.39,0,1,0,0,2.78h9.88a28.05,28.05,0,0,0,23.46,18c.91.09,1.83.14,2.75.14a28.1,28.1,0,0,0,15.31-4.53,1.39,1.39,0,1,0-1.52-2.33A25.26,25.26,0,1,1,67.61,59a1.39,1.39,0,0,0,2.33,1.51A28.19,28.19,0,0,0,74.31,42.45ZM39.42,9.76a2,2,0,0,1,1.95-1.95h10a1.95,1.95,0,0,1,0,3.89h-10A2,2,0,0,1,39.42,9.76ZM43,17.4V14.48h6.72V17.4A28,28,0,0,0,43,17.4Z" fill="#053361"/><path d="M65.25,62.71a1.41,1.41,0,0,0-1,.41,1.36,1.36,0,0,0-.4,1,1.39,1.39,0,0,0,.4,1,1.39,1.39,0,0,0,2,0,1.39,1.39,0,0,0,.4-1,1.36,1.36,0,0,0-.4-1A1.4,1.4,0,0,0,65.25,62.71Z" fill="#053361"/><path d="M46.39,23.7A21.55,21.55,0,1,0,67.93,45.24,21.57,21.57,0,0,0,46.39,23.7Zm0,40.31A18.77,18.77,0,1,1,65.16,45.24,18.79,18.79,0,0,1,46.39,64Z" fill="#053361"/><path d="M55.17,34.49,48.3,41.37a4.37,4.37,0,0,0-3.82,0L41.4,38.29a1.39,1.39,0,0,0-2,2l3.08,3.07a4.26,4.26,0,0,0-.45,1.91,4.32,4.32,0,1,0,8.63,0,4.39,4.39,0,0,0-.44-1.91l6.68-6.67h0l.2-.2a1.39,1.39,0,0,0-2-2ZM46.39,46.78a1.54,1.54,0,1,1,1.54-1.54A1.54,1.54,0,0,1,46.39,46.78Z" fill="#053361"/><path d="M61.24,43.87H60a1.39,1.39,0,0,0,0,2.78h1.29a1.39,1.39,0,0,0,0-2.78Z" fill="#053361"/><path d="M32.83,43.84H31.54a1.39,1.39,0,1,0,0,2.77h1.29a1.39,1.39,0,0,0,0-2.77Z" fill="#053361"/><path d="M46.41,33.07a1.38,1.38,0,0,0,1.38-1.39V30.39a1.39,1.39,0,1,0-2.77,0v1.29A1.39,1.39,0,0,0,46.41,33.07Z" fill="#053361"/><path d="M46.37,57.42A1.39,1.39,0,0,0,45,58.8v1.29a1.39,1.39,0,1,0,2.78,0V58.8A1.38,1.38,0,0,0,46.37,57.42Z" fill="#053361"/><path d="M4.72,52.42a1.4,1.4,0,0,0-1.39,1.39,1.39,1.39,0,0,0,.41,1,1.4,1.4,0,0,0,1,.41,1.37,1.37,0,0,0,1-.41,1.39,1.39,0,0,0,.41-1,1.4,1.4,0,0,0-.41-1A1.37,1.37,0,0,0,4.72,52.42Z" fill="#053361"/></g></g></g></g></g></svg>
