<svg xmlns="http://www.w3.org/2000/svg" viewBox="0 0 63.83 59.15"  width="80" height="80" aria-hidden="true" focusable="false">
  <defs>
    <style>
      .cls-2{fill:none;stroke:#1d3964}.cls-2,.cls-3,.cls-5{stroke-linecap:round;stroke-linejoin:round}.cls-2,.cls-3{stroke-width:2px}.cls-3{fill:#fff}.cls-3,.cls-5{stroke:#1b3964}.cls-4,.cls-5{fill:#1b3964}
    </style>
  </defs>
  <g id="Layer_2" >
    <g id="try_at_home" >
      <path fill="#7cbddf" d="M60.07 51V30h3.47a.91.91 0 0 0 0-1.29L35.49 4.27a.91.91 0 0 0-1.29 0l-9.92 8.58v-6h-8.92v13.71l-8.3 7.19a.92.92 0 0 0 0 1.29l3.67.05-.08 20.85"/>
      <path d="M57.07 43.5V26.98h3.47a.91.91 0 0 0 0-1.29L32.49 1.27a.91.91 0 0 0-1.29 0l-9.92 8.58v-6h-8.92v13.71l-8.3 7.19a.92.92 0 0 0 0 1.29l3.67.05-.08 11.51" class="cls-2"/>
      <path d="M32.31 12.88a4.91 4.91 0 0 0-4.9 4.9v5.85h9.8v-5.85a4.91 4.91 0 0 0-4.9-4.9z" class="cls-2"/>
      <path d="M48.07 55.28c1.07.13 5.26.42 5.3-2.73 0 0 1.48-5.65-12.42-7.59 0 0-12.18-10.29-32.44-3.16a29.77 29.77 0 0 1-4.4 1 2 2 0 0 0-1.7 1.86l-.17 3.07s-4.73 6.93 4.28 6.93h1.2m8.55.12l21.29.32" class="cls-3"/>
      <path d="M43.87 51.11a3.52 3.52 0 1 0 3.52 3.52 3.53 3.53 0 0 0-3.52-3.52zM12 51.11a3.51 3.51 0 1 0 2.66 1.21" class="cls-3"/>
      <path d="M36.42 46.54c-3.58-.13-15.23-.24-15.23-.24v-4.62c8 .43 12.06 1.57 15.23 3.41s.42 1.46 0 1.45zM19.38 46.33a72.19 72.19 0 0 1-8.38-.11c-2.37-.38-1.13-2.29-.76-2.5 2.69-1.45 6.67-1.81 9.13-2z" class="cls-4"/>
      <path d="M12 55.4a.77.77 0 0 1 0-1.54.77.77 0 1 1 0 1.54zM43.87 55.4a.77.77 0 1 1 .77-.77.76.76 0 0 1-.77.77z" class="cls-5"/>
      <path d="M22.79 49.08h3.07" class="cls-3"/>
    </g>
  </g>
</svg>
